<?xml version="1.0" encoding="UTF-8"?>
<svg id="Layer_2" data-name="Layer 2" xmlns="http://www.w3.org/2000/svg" width="1920" height="1313.533" viewBox="0 0 1920 1313.533">
  <defs>
    <style>
      .cls-1 {
        fill: #e8701b;
      }

      .cls-2 {
        fill: #5c5f3b;
      }

      .cls-3 {
        fill: #4d2b13;
      }

      .cls-4 {
        fill: #c54724;
      }

      .cls-5 {
        fill: #efad30;
      }
    </style>
  </defs>
  <path class="cls-4" d="M10.456,829.356c18.757-25.736,38.57-51.002,59.739-75.541l8.027-9.154c2.702-3.037,5.295-6.131,8.118-9.1l16.697-17.936,17.317-17.555c5.904-5.765,11.944-11.442,17.923-17.153,24.305-22.579,50.277-44.012,78.119-63.628,27.876-19.566,57.641-37.269,89.01-52.41l5.867-2.859,5.973-2.681,11.961-5.332c4.023-1.707,8.097-3.317,12.148-4.969,4.057-1.641,8.102-3.306,12.24-4.765l12.356-4.5c4.13-1.47,8.326-2.765,12.489-4.144,8.31-2.826,16.789-5.1,25.212-7.556,4.234-1.139,8.492-2.181,12.739-3.264l6.377-1.602,6.41-1.413c4.276-.923,8.547-1.901,12.832-2.758l12.875-2.398c4.291-.845,8.594-1.42,12.893-2.111,4.3-.659,8.602-1.361,12.901-1.855l12.902-1.597,12.879-1.248c17.149-1.481,34.249-2.376,51.137-2.556,16.88-.172,33.578.215,50.003,1.049,32.819,1.677,64.534,5.238,94.204,8.799,14.807,1.771,29.09,3.532,42.388,4.89l4.957.5c1.672.176,3.195.284,4.799.432l4.755.418,4.523.315,2.259.16c.763.059,1.505.108,2.194.132l4.236.203,2.142.104,2.418.053,4.836.11c12.941.424,25.606.133,38.196-.26l9.344-.537,4.67-.262,4.611-.402,9.216-.797,9.1-1.052c12.066-1.549,23.984-3.37,35.567-5.972,1.452-.316,2.926-.574,4.36-.933l4.312-1.053c2.867-.722,5.777-1.322,8.6-2.164l8.528-2.348,8.435-2.619c11.206-3.622,22.258-7.752,33.22-12.427,10.948-4.739,21.816-10.062,32.682-15.891,2.713-1.503,5.434-2.901,8.148-4.474l8.149-4.679c5.433-3.275,10.874-6.51,16.325-10.015,10.906-6.935,21.844-14.251,32.877-22.105,11.033-7.833,22.136-16.001,33.347-24.483,11.225-8.516,22.537-17.251,33.979-26.185l8.615-6.738,4.312-3.374,3.548-2.882c2.362-1.931,4.721-3.784,7.099-5.765l7.165-6.143c2.385-1.987,4.802-4.219,7.213-6.376l3.62-3.249c1.207-1.08,2.413-2.152,3.633-3.312,4.867-4.561,9.724-9.026,14.652-13.845,9.802-9.383,19.783-19.424,29.852-29.56l30.849-31.392,15.888-16.089,16.29-16.247,8.339-8.158,4.171-4.078,4.27-4.081,8.549-8.158c2.853-2.718,5.83-5.425,8.741-8.137,11.629-10.856,23.873-21.589,36.357-32.192,3.119-2.653,6.38-5.251,9.566-7.875,3.229-2.606,6.357-5.257,9.674-7.82l9.931-7.691,4.973-3.837,5.13-3.748c27.224-20.039,56.637-38.754,88.32-54.688,31.742-15.826,65.692-28.765,100.748-37.75l6.57-1.697,3.286-.842c1.095-.283,2.208-.482,3.312-.725l13.28-2.762c8.837-1.989,17.777-3.149,26.689-4.557l6.689-1.007c2.231-.274,4.465-.482,6.698-.723l13.403-1.361c2.222-.214,4.496-.458,6.676-.64l6.285-.383,12.572-.746c2.099-.106,4.184-.28,6.293-.326l6.321-.177,12.642-.334,3.161-.079,3.173.007,6.349.031,12.697.084c4.24.101,8.49.297,12.734.449l6.368.249c2.123.087,4.244.149,6.373.321l12.762.899,6.38.462,6.386.645,12.77,1.325c4.256.459,8.512,1.108,12.767,1.662l6.382.871,3.19.445,3.187.529,12.745,2.141c16.972,3.113,33.916,6.699,50.708,11.301,11.62,3.119,23.188,6.566,34.67,10.414V29.852c-8.228-2.559-16.483-4.942-24.76-7.164-17.876-4.892-35.873-8.71-53.887-12.01l-13.52-2.271-3.381-.559-3.38-.474-6.762-.925c-4.507-.589-9.021-1.271-13.526-1.759l-13.515-1.405-6.759-.679-6.744-.492-13.49-.948c-2.252-.18-4.49-.248-6.731-.341l-6.723-.265c-4.48-.161-8.969-.364-13.443-.47l-13.387-.092-6.694-.03-3.346-.006-3.328.081-13.311.35-6.655.19c-2.222.051-4.411.23-6.619.341l-13.218.783-6.608.406c-2.325.193-4.785.452-7.171.68l-14.415,1.464c-2.402.26-4.802.489-7.203.784l-7.206,1.077c-9.601,1.506-19.22,2.782-28.752,4.908l-14.313,2.982c-1.189.263-2.388.482-3.569.785l-3.544.903-7.083,1.825c-37.793,9.684-74.371,23.641-108.366,40.6-33.93,17.059-65.206,36.985-93.894,58.105l-5.409,3.955-5.225,4.028-10.43,8.079c-1.761,1.342-3.419,2.714-5.097,4.08l-5.03,4.103c-3.33,2.742-6.748,5.469-9.998,8.233l-9.701,8.306-4.845,4.159-4.693,4.179-9.365,8.369c-3.129,2.792-6.074,5.588-9.118,8.384-3.001,2.795-6.082,5.598-9.012,8.39l-8.78,8.377-4.384,4.19-4.262,4.167-8.521,8.336-16.553,16.508-16.031,16.234-30.777,31.319c-9.93,9.997-19.735,19.858-29.176,28.894-4.781,4.677-9.399,8.915-14.046,13.274-1.17,1.115-2.304,2.12-3.441,3.137l-3.41,3.06c-2.268,2.03-4.56,4.15-6.758,5.975l-6.641,5.697c-2.185,1.819-4.319,3.488-6.471,5.251l-3.23,2.63-4.293,3.36-8.573,6.705c-11.364,8.872-22.522,17.488-33.524,25.835-10.976,8.305-21.75,16.227-32.363,23.763-10.615,7.558-20.996,14.493-31.25,21.015-5.131,3.302-10.195,6.306-15.252,9.36l-7.538,4.327c-2.51,1.459-4.999,2.729-7.493,4.114-9.966,5.344-19.824,10.171-29.677,14.438-9.862,4.201-19.741,7.888-29.75,11.128l-7.533,2.343-7.625,2.096c-2.518.761-5.134,1.286-7.7,1.936l-3.863.948c-1.284.325-2.614.55-3.918.834-10.392,2.346-21.177,3.981-32.161,5.397l-8.3.963-8.452.728-4.23.373-4.31.238-8.624.499-8.782.247-4.392.136c-1.474.028-2.975.007-4.461.015l-8.938.026c-2.989-.003-6.046-.134-9.066-.187l-4.543-.102-2.272-.048-1.879-.094-3.691-.176-.931-.043-1.024-.075-2.047-.146-4.103-.284-4.436-.391-2.218-.192c-.732-.061-1.475-.125-2.281-.212l-4.726-.477c-12.715-1.297-26.846-3.036-41.721-4.816-14.89-1.784-30.56-3.61-46.745-5.195-16.203-1.574-32.873-2.971-50.034-3.825-17.14-.871-34.66-1.28-52.439-1.097-17.791.191-35.888,1.13-54.072,2.704l-13.668,1.327-13.714,1.695c-4.566.529-9.149,1.271-13.725,1.972-4.577.734-9.152,1.353-13.727,2.249l-13.719,2.556c-4.567.913-9.125,1.952-13.684,2.938l-6.836,1.511-6.806,1.705c-4.533,1.154-9.075,2.269-13.593,3.486-36.08,9.988-71.465,23.016-104.791,39.247-33.397,16.117-64.982,34.919-94.432,55.593-29.413,20.722-56.716,43.265-82.158,66.901-6.255,5.967-12.573,11.911-18.741,17.936l-18.067,18.316-17.382,18.67c-2.939,3.096-5.631,6.301-8.438,9.456l-8.336,9.507c-14.358,16.642-28.069,33.57-41.251,50.706v64.666c3.481-4.932,6.982-9.855,10.456-14.789Z"/>
  <path class="cls-1" d="M16.399,917.928l3.047-4.787,3.152-4.731,6.324-9.451c8.298-12.676,17.225-24.997,25.961-37.423,17.925-24.588,36.778-48.619,56.797-71.828l7.584-8.648c2.55-2.866,5.003-5.804,7.66-8.59l15.714-16.884,16.241-16.464c5.526-5.392,11.167-10.687,16.751-16.03,22.675-21.065,46.74-40.906,72.329-58.936,25.621-17.979,52.777-34.105,81.238-47.848l5.323-2.601,5.415-2.424,10.835-4.836c3.643-1.545,7.33-2.994,10.995-4.491,3.67-1.486,7.328-3.001,11.07-4.311l11.168-4.07c3.732-1.331,7.525-2.491,11.286-3.74,7.504-2.565,15.172-4.599,22.778-6.831,3.827-1.029,7.677-1.964,11.516-2.946l5.763-1.453,5.801-1.273c3.87-.833,7.731-1.724,11.611-2.499l11.666-2.17c3.883-.773,7.797-1.284,11.697-1.914,3.904-.598,7.804-1.243,11.72-1.686l11.738-1.456,11.749-1.136c15.664-1.349,31.335-2.178,46.93-2.344,15.591-.156,31.112.199,46.513.98,30.793,1.572,61.073,4.947,90.512,8.483,14.711,1.758,29.211,3.551,43.343,4.996,3.528.357,7.063.722,10.518,1.003l5.213.456,5.126.359c3.445.274,6.774.413,10.117.574l2.518.118,2.628.06,5.257.121c56.102,1.545,111.265-4.416,162.973-20.996,12.922-4.171,25.655-8.935,38.195-14.29,12.519-5.415,24.834-11.45,36.991-17.974,3.026-1.671,6.081-3.254,9.086-4.991l9.024-5.183c5.972-3.592,11.953-7.159,17.863-10.954,11.841-7.527,23.578-15.39,35.209-23.668,11.637-8.261,23.211-16.779,34.757-25.515,11.545-8.758,23.077-17.665,34.632-26.686l8.676-6.785,4.339-3.396,4.004-3.244c2.663-2.172,5.345-4.29,7.998-6.501l7.915-6.782c2.652-2.219,5.251-4.611,7.866-6.951,2.607-2.367,5.24-4.649,7.828-7.084,5.182-4.851,10.381-9.64,15.521-14.662,20.622-19.838,40.975-40.871,61.772-62.013,20.771-21.151,42.03-42.468,64.393-63.147,22.346-20.677,45.755-40.803,70.931-59.274,25.124-18.49,51.869-35.47,80.329-49.79,28.514-14.203,58.697-25.683,89.83-33.667l5.833-1.513,2.917-.754c.972-.254,1.963-.424,2.943-.64l11.799-2.446c7.841-1.791,15.808-2.786,23.732-4.052l5.95-.907c1.988-.242,3.982-.422,5.973-.634l11.952-1.214c1.988-.193,3.995-.415,5.967-.582l5.823-.35,11.647-.692c1.943-.098,3.879-.266,5.828-.305l5.842-.16,11.684-.311,2.921-.076,2.927.009,5.854.032,11.708.072c3.905.094,7.812.28,11.718.418l5.859.227c1.953.079,3.906.131,5.859.294l11.717.828,5.858.419,5.851.596,11.701,1.211c3.899.418,7.786,1.02,11.679,1.524l5.837.794,2.917.404,2.909.486,11.635,1.954c15.477,2.846,30.912,6.099,46.15,10.285,15.253,4.095,30.384,8.776,45.255,14.309,1.209.445,2.414.903,3.62,1.357v-40.715c-12.877-4.476-25.885-8.408-38.965-11.919-16.322-4.476-32.81-7.961-49.33-10.994l-12.409-2.085-3.103-.516-3.108-.433-6.217-.848c-4.145-.539-8.29-1.174-12.438-1.621l-12.447-1.29-6.224-.63-6.222-.449-12.446-.878c-2.076-.17-4.146-.229-6.217-.313l-6.214-.242c-4.142-.148-8.288-.341-12.427-.44l-12.398-.08-6.199-.031-3.099-.008-3.088.078-12.353.327-6.176.172c-2.061.044-4.101.217-6.153.32l-12.292.73-6.146.373c-2.117.177-4.31.414-6.461.622l-12.964,1.317c-2.16.232-4.321.432-6.479.696l-6.466.977c-8.613,1.365-17.259,2.475-25.795,4.404l-12.832,2.666c-1.066.235-2.143.425-3.2.7l-3.175.815-6.347,1.641c-33.87,8.683-66.681,21.18-97.447,36.516-30.708,15.446-59.315,33.636-85.904,53.207-26.652,19.562-51.118,40.621-74.21,61.986-2.872,2.675-5.805,5.34-8.624,8.027l-8.449,8.063-4.221,4.033-4.131,4.04-8.261,8.081-16.176,16.133-15.826,16.026-30.88,31.424c-10.128,10.197-20.187,20.315-30.144,29.849-4.992,4.88-9.953,9.443-14.914,14.092-2.482,2.338-4.952,4.471-7.426,6.72-2.472,2.213-4.945,4.493-7.41,6.55l-7.391,6.336c-2.461,2.05-4.917,3.983-7.37,5.987l-3.686,2.992-4.32,3.381-8.634,6.752c-11.476,8.96-22.854,17.747-34.177,26.336-11.312,8.559-22.557,16.832-33.773,24.795-11.214,7.982-22.393,15.464-33.582,22.578-5.589,3.593-11.194,6.928-16.79,10.299l-8.413,4.831c-2.801,1.623-5.624,3.077-8.431,4.631-11.256,6.039-22.562,11.577-33.985,16.521-11.439,4.881-22.999,9.202-34.724,12.99-23.465,7.497-47.704,12.688-72.836,15.756l-9.446,1.091c-3.17.306-6.366.545-9.546.828l-4.776.414-4.826.273-9.655.553c-12.984.41-26.032.702-39.304.271l-4.963-.113-2.482-.055-2.255-.108-4.472-.215c-1.462-.052-3.105-.208-4.648-.304l-4.706-.328-4.894-.43c-1.647-.151-3.228-.265-4.929-.443l-5.058-.51c-13.55-1.384-27.898-3.155-42.677-4.922-29.6-3.553-60.881-7.058-93.088-8.703-16.115-.818-32.458-1.195-48.948-1.028-16.497.176-33.166,1.051-49.865,2.492l-12.538,1.214-12.55,1.554c-4.183.479-8.364,1.163-12.544,1.804-4.178.673-8.364,1.228-12.531,2.051l-12.509,2.329c-4.162.832-8.309,1.784-12.463,2.68l-6.226,1.371-6.192,1.557c-4.124,1.053-8.259,2.062-12.37,3.168-8.176,2.388-16.41,4.59-24.476,7.337-4.042,1.34-8.116,2.594-12.126,4.022l-11.997,4.37c-4.018,1.414-7.947,3.033-11.886,4.627-3.934,1.605-7.892,3.166-11.8,4.824l-11.621,5.182-5.805,2.604-5.703,2.781c-30.49,14.719-59.466,31.944-86.66,51.031-27.161,19.136-52.556,40.088-76.368,62.209-5.86,5.599-11.778,11.161-17.569,16.813l-16.992,17.225-16.4,17.618c-2.773,2.914-5.324,5.961-7.98,8.946l-7.893,9.001c-20.821,24.138-40.345,49.03-58.85,74.419-8.013,11.386-16.177,22.709-23.887,34.237v70.63c1.403-2.292,2.805-4.584,4.215-6.872l12.184-19.152Z"/>
  <path class="cls-5" d="M50.756,966.12l11.714-18.413,2.928-4.604,3.024-4.535,6.063-9.058c7.96-12.171,16.485-23.914,24.826-35.795,17.093-23.44,34.987-46.236,53.855-68.115l7.141-8.142c2.399-2.695,4.711-5.477,7.202-8.08l14.732-15.832,15.166-15.372c5.148-5.019,10.391-9.932,15.578-14.907,21.045-19.55,43.203-37.799,66.539-54.243,23.366-16.391,47.912-30.941,73.466-43.285l4.779-2.342,4.856-2.166,9.71-4.339c3.263-1.382,6.563-2.671,9.842-4.013,3.283-1.331,6.554-2.696,9.9-3.857l9.98-3.641c3.334-1.192,6.724-2.217,10.083-3.337,6.698-2.305,13.554-4.097,20.343-6.107,3.419-.918,6.863-1.747,10.293-2.628l5.149-1.305,5.192-1.133c3.464-.742,6.915-1.546,10.389-2.241l10.456-1.943c3.475-.701,7-1.148,10.501-1.716,3.507-.537,7.006-1.124,10.538-1.517l10.574-1.315,10.619-1.023c14.178-1.216,28.421-1.981,42.723-2.131,14.302-.14,28.646.183,43.022.911,28.766,1.467,57.612,4.655,86.821,8.167,14.614,1.745,29.332,3.57,44.299,5.102,3.745.379,7.485.764,11.28,1.076l5.671.495,5.729.404c3.802.299,7.677.47,11.544.653l2.894.133,2.839.067,5.677.133c15.129.477,30.329.177,45.526-.33l11.406-.645,5.703-.331,5.703-.485c3.801-.334,7.604-.628,11.404-.998l11.392-1.31c30.356-3.699,60.57-10.117,89.874-19.494,14.638-4.72,29.053-10.117,43.169-16.152,14.09-6.092,27.852-12.838,41.299-20.057,3.339-1.839,6.728-3.607,10.024-5.508l9.899-5.687c6.511-3.909,13.033-7.807,19.401-11.894,12.776-8.119,25.312-16.529,37.541-25.23,24.507-17.36,48.111-35.527,71.452-53.735l8.737-6.833,4.366-3.417,4.46-3.605c2.964-2.413,5.969-4.796,8.898-7.237l8.665-7.421c2.919-2.452,5.699-5.003,8.518-7.527,2.797-2.538,5.664-5.032,8.403-7.607,5.496-5.14,11.038-10.255,16.389-15.48,21.605-20.792,42.209-42.102,62.844-63.073,20.617-20.997,41.245-41.661,62.537-61.347,21.276-19.691,43.17-38.479,66.23-55.386,23.024-16.942,47.1-32.186,72.338-44.892,25.285-12.579,51.701-22.601,78.911-29.583l5.097-1.329,2.548-.666c.849-.225,1.717-.367,2.574-.555l10.319-2.131c6.846-1.593,13.839-2.423,20.775-3.548l5.21-.806c1.745-.211,3.5-.361,5.249-.546l10.502-1.066c1.753-.172,3.493-.373,5.258-.524l5.361-.317,10.722-.638c1.787-.09,3.573-.251,5.361-.284l5.363-.142,10.726-.289,2.682-.073,2.68.012,5.359.032,10.719.06c3.57.087,7.135.262,10.702.388l5.351.204c1.783.071,3.569.114,5.345.267l10.672.757,5.336.376,5.317.547,10.633,1.097c3.543.376,7.059.932,10.591,1.387l5.292.717,2.645.363,2.631.443,10.524,1.768c13.983,2.579,27.908,5.5,41.593,9.269,13.705,3.68,27.269,7.869,40.536,12.813,7.599,2.801,15.118,5.799,22.545,8.992v-41.363c-3.104-1.213-6.217-2.401-9.342-3.553-14.386-5.355-29.044-9.888-43.828-13.857-14.768-4.059-29.747-7.212-44.772-9.977l-11.299-1.898-2.825-.473-2.835-.392-5.672-.771c-3.784-.49-7.558-1.078-11.35-1.483l-11.378-1.177-5.69-.581-5.7-.406-11.401-.807c-1.9-.159-3.802-.209-5.704-.286l-5.706-.22c-3.804-.135-7.608-.317-11.411-.409l-11.409-.068-5.705-.032-2.852-.01-2.849.075-11.395.304-5.697.154c-1.9.038-3.791.203-5.687.299l-11.367.676-5.684.34c-1.909.162-3.835.377-5.752.564l-11.514,1.169c-1.918.204-3.839.375-5.754.608l-5.726.876c-7.625,1.224-15.298,2.169-22.838,3.9l-11.352,2.351c-.943.207-1.897.369-2.832.614l-2.806.727-5.611,1.457c-29.947,7.681-58.991,18.721-86.529,32.432-27.486,13.832-53.424,30.287-77.913,48.309-24.536,17.999-47.487,37.72-69.51,58.099-22.039,20.379-43.108,41.498-63.832,62.603-20.749,21.09-41.177,42.207-62.096,62.333-5.203,5.084-10.506,9.971-15.783,14.91-2.634,2.478-5.337,4.824-8.002,7.243-2.677,2.396-5.33,4.836-8.063,7.125l-8.141,6.975c-2.737,2.281-5.516,4.479-8.27,6.724l-4.142,3.353-4.347,3.402-8.694,6.8c-23.182,18.086-46.362,35.914-70.013,52.665-11.812,8.405-23.79,16.434-35.914,24.14-6.048,3.884-12.193,7.551-18.328,11.238l-9.289,5.335c-3.092,1.787-6.249,3.426-9.369,5.148-12.547,6.734-25.299,12.984-38.293,18.604-13.016,5.56-26.258,10.516-39.699,14.853-53.824,17.266-111.018,23.366-168.425,21.781l-5.384-.125-2.692-.062-2.632-.123c-3.501-.168-6.995-.316-10.548-.598l-5.308-.373-5.352-.468c-3.558-.291-7.155-.662-10.748-1.025-14.385-1.471-28.951-3.274-43.632-5.028-29.37-3.529-59.216-6.847-89.396-8.387-15.091-.764-30.256-1.11-45.457-.959-15.204.16-30.444.971-45.658,2.279l-11.407,1.102-11.386,1.413c-3.8.428-7.579,1.056-11.362,1.635-3.779.611-7.576,1.102-11.335,1.854l-11.3,2.101c-3.757.751-7.494,1.616-11.242,2.421l-5.617,1.231-5.577,1.408c-3.715.951-7.443,1.855-11.146,2.85-7.359,2.166-14.781,4.126-22.041,6.613-3.639,1.21-7.311,2.329-10.922,3.618l-10.809,3.94c-3.622,1.265-7.163,2.735-10.716,4.174-3.548,1.45-7.118,2.851-10.646,4.346l-10.495,4.685-5.246,2.346-5.159,2.523c-27.582,13.32-53.949,28.97-78.888,46.468-24.908,17.55-48.396,36.91-70.579,57.517-5.464,5.231-10.984,10.411-16.396,15.69l-15.916,16.134-15.417,16.566c-2.607,2.731-5.017,5.622-7.522,8.436l-7.45,8.495c-19.671,22.807-38.235,46.464-55.908,70.706-8.617,12.261-17.422,24.407-25.618,36.931l-6.245,9.332-3.113,4.671-3.011,4.732-12.042,18.928c-6.175,10.019-12.281,20.079-18.286,30.193v77.844c2.212-4.098,4.438-8.189,6.695-12.261,13.899-25.668,28.789-50.729,44.061-75.515Z"/>
  <path class="cls-2" d="M54.789,1068.025c13.461-24.87,27.825-49.022,42.508-72.864l11.245-17.674,2.809-4.42,2.895-4.339,5.802-8.665c7.622-11.666,15.746-22.831,23.691-34.167,16.261-22.293,33.195-43.853,50.913-64.402l6.698-7.636c2.247-2.525,4.419-5.149,6.744-7.57l13.75-14.78,14.09-14.281c4.77-4.646,9.614-9.178,14.406-13.784,19.416-18.036,39.666-34.693,60.75-49.551,21.11-14.803,43.048-27.777,65.695-38.723l4.235-2.084,4.298-1.909,8.584-3.843c2.882-1.22,5.796-2.348,8.688-3.536,2.896-1.176,5.78-2.391,8.73-3.404l8.792-3.211c2.936-1.054,5.924-1.943,8.88-2.933,5.892-2.045,11.936-3.596,17.908-5.383,3.012-.807,6.049-1.531,9.069-2.31l4.535-1.156,4.582-.994c3.058-.651,6.098-1.368,9.168-1.982l9.247-1.715c3.067-.629,6.203-1.012,9.305-1.519,3.111-.476,6.207-1.006,9.357-1.349l9.41-1.175,9.489-.911c12.693-1.083,25.507-1.784,38.516-1.919,13.014-.125,26.18.167,39.531.841,26.74,1.361,54.15,4.364,83.129,7.851,14.518,1.732,29.452,3.589,45.255,5.208l5.951.598c1.967.204,4.064.366,6.09.55l6.129.533,6.331.449c2.137.137,4.169.318,6.392.413l6.579.319,3.271.148,3.049.074,6.098.145c16.223.504,32.69.198,49.19-.365l12.438-.699,6.22-.366,6.248-.527c4.167-.363,8.327-.69,12.498-1.098l12.538-1.438c33.433-4.071,67.166-11.212,99.91-21.696,16.354-5.269,32.45-11.3,48.144-18.014,15.661-6.768,30.87-14.225,45.608-22.139,3.652-2.008,7.375-3.959,10.962-6.025l10.775-6.191c7.05-4.226,14.112-8.455,20.938-12.833,13.711-8.711,27.045-17.668,39.872-26.792,12.844-9.115,25.361-18.336,37.578-27.58,12.185-9.242,24.157-18.492,35.937-27.689l8.797-6.88,4.393-3.438,4.916-3.966c3.266-2.654,6.593-5.302,9.797-7.974l9.415-8.059c3.187-2.684,6.147-5.396,9.171-8.102,2.988-2.708,6.087-5.414,8.979-8.13,5.811-5.43,11.696-10.869,17.257-16.298,11.349-10.877,22.091-21.689,32.755-32.425l31.161-31.708,15.271-15.465,15.16-15.12,7.558-7.393,3.778-3.697,3.781-3.609,7.558-7.215c2.519-2.404,5.052-4.694,7.576-7.048,20.207-18.704,40.586-36.155,61.529-51.498,20.924-15.393,42.331-28.901,64.348-39.995,22.056-10.955,44.705-19.519,67.993-25.5l4.361-1.145,2.179-.578c.725-.196,1.471-.31,2.206-.47l8.838-1.815c5.85-1.395,11.87-2.059,17.818-3.044l4.47-.706c1.502-.18,3.017-.301,4.524-.458l9.051-.919c1.519-.152,2.992-.33,4.549-.466l4.899-.284,9.797-.584c1.631-.083,3.268-.236,4.895-.263l4.884-.124,9.768-.266,2.442-.07,2.433.014,4.865.033,9.73.048c3.235.08,6.457.245,9.687.357l4.842.182c1.614.062,3.231.097,4.832.239l9.628.687,4.815.333,4.782.497,9.565.983c3.186.334,6.333.843,9.503,1.249l4.747.639,2.372.323,2.353.4,9.413,1.581c12.489,2.311,24.904,4.9,37.035,8.253,12.157,3.264,24.155,6.962,35.817,11.316,11.68,4.307,23.107,9.104,34.141,14.419,2.464,1.186,4.905,2.402,7.328,3.639v-42.444c-9.256-4.17-18.694-8.009-28.266-11.538-12.781-4.765-25.872-8.806-39.109-12.36-13.215-3.643-26.683-6.464-40.215-8.961l-10.188-1.711-2.547-.43-2.563-.351-5.127-.693c-3.422-.44-6.827-.981-10.262-1.345l-10.31-1.063-5.155-.532-5.179-.363-10.356-.736c-1.723-.149-3.458-.19-5.19-.258l-5.197-.197c-3.465-.121-6.927-.293-10.395-.378l-10.42-.057-5.21-.033-2.605-.012-2.609.072-10.437.282-5.218.137c-1.739.031-3.48.19-5.22.278l-10.443.622-5.221.307c-1.702.146-3.361.34-5.043.506l-10.063,1.022c-1.676.176-3.358.318-5.03.519l-4.986.776c-6.638,1.083-13.337,1.863-19.881,3.396l-9.871,2.035c-.82.179-1.652.312-2.463.529l-2.437.639-4.874,1.273c-26.025,6.679-51.301,16.261-75.61,28.349-24.264,12.219-47.533,26.938-69.923,43.412-22.42,16.435-43.856,34.818-64.809,54.211-20.968,19.385-41.407,39.852-61.977,60.803-20.586,20.92-41.265,42.313-63.168,63.393-5.414,5.287-11.06,10.5-16.651,15.728-2.786,2.618-5.722,5.176-8.577,7.765-2.881,2.579-5.715,5.179-8.716,7.701l-8.892,7.614c-3.012,2.511-6.114,4.974-9.17,7.46l-4.598,3.714-4.374,3.423-8.755,6.847c-11.702,9.135-23.52,18.266-35.482,27.339-11.983,9.066-24.171,18.042-36.594,26.859-12.41,8.828-25.187,17.404-38.245,25.702-6.506,4.175-13.192,8.173-19.865,12.178l-10.164,5.84c-3.383,1.951-6.874,3.774-10.307,5.665-13.837,7.429-28.037,14.39-42.602,20.686-14.593,6.24-29.516,11.829-44.673,16.715-30.344,9.711-61.622,16.348-92.908,20.16l-11.738,1.348c-3.912.381-7.823.685-11.734,1.028l-5.867.498-5.859.342-11.718.661c-15.591.524-31.174.825-46.634.34l-5.804-.137-2.902-.069-3.008-.137c-4.025-.19-8.066-.371-11.975-.677l-5.911-.417-5.809-.506c-3.897-.321-7.699-.712-11.51-1.098-15.22-1.558-30.003-3.393-44.588-5.134-29.139-3.504-57.551-6.636-85.705-8.071-14.066-.711-28.054-1.026-41.966-.89-13.911.145-27.721.891-41.451,2.067l-10.277.989-10.222,1.273c-3.417.378-6.794.948-10.181,1.466-3.38.55-6.788.977-10.14,1.656l-10.09,1.874c-3.352.67-6.679,1.449-10.02,2.163l-5.008,1.091-4.963,1.26c-3.306.85-6.627,1.648-9.923,2.532-6.542,1.943-13.152,3.662-19.607,5.889-3.237,1.08-6.506,2.064-9.719,3.215l-9.621,3.511c-3.226,1.117-6.38,2.436-9.546,3.72-3.162,1.296-6.345,2.536-9.493,3.869l-9.369,4.189-4.687,2.088-4.614,2.264c-24.675,11.922-48.433,25.995-71.117,41.906-22.655,15.965-44.236,33.732-64.789,52.825-5.068,4.863-10.19,9.661-15.224,14.568l-14.84,15.043-14.435,15.514c-2.44,2.548-4.711,5.282-7.064,7.926l-7.007,7.989c-18.521,21.477-36.125,43.899-52.966,66.993-8.221,11.716-16.626,23.284-24.483,35.303l-5.984,8.939-2.985,4.475-2.892,4.548-11.572,18.189c-15.094,24.5-29.825,49.286-43.591,74.713-7.295,13.158-14.337,26.477-21.235,39.885v86.717c5.124-10.949,10.315-21.853,15.616-32.683,12.65-25.466,25.48-50.817,39.172-75.508Z"/>
  <path class="cls-3" d="M1905.469,259.291c-10.529-5.072-21.464-9.663-32.66-13.791-11.176-4.176-22.701-7.725-34.39-10.864-11.661-3.227-23.62-5.715-35.657-7.945l-9.078-1.525-2.269-.387-2.29-.31-4.582-.616c-3.06-.39-6.095-.885-9.174-1.207l-9.242-.949-4.621-.483-4.657-.32-9.312-.665c-1.547-.139-3.114-.171-4.677-.231l-4.688-.175c-3.127-.108-6.246-.27-9.379-.348l-9.431-.045-4.716-.033-2.359-.014-2.37.069-9.478.259-4.74.119c-1.578.024-3.17.176-4.755.256l-9.517.568-4.759.274c-1.494.131-2.886.303-4.334.448l-8.613.874c-1.434.148-2.877.261-4.305.431l-4.246.676c-5.65.942-11.375,1.556-16.924,2.892l-8.391,1.72c-.697.151-1.406.256-2.094.444l-2.068.551-4.138,1.09c-22.102,5.678-43.611,13.801-64.692,24.265-42.108,21.228-82.35,51.866-122.04,88.837-2.485,2.318-4.973,4.566-7.458,6.938l-7.459,7.12-3.731,3.561-3.739,3.659-7.48,7.315-15.046,15.007-15.209,15.402-31.192,31.74c-10.724,10.796-21.542,21.686-33.048,32.714-5.625,5.491-11.614,11.028-17.52,16.546-1.456,1.378-3.002,2.762-4.541,4.144l-4.611,4.144c-3.086,2.761-6.101,5.522-9.368,8.276l-9.642,8.253c-3.288,2.742-6.713,5.469-10.069,8.196l-5.054,4.076-4.401,3.445-8.815,6.894c-11.814,9.223-23.852,18.525-36.134,27.841-12.319,9.32-24.978,18.647-38.005,27.892-13.008,9.252-26.584,18.374-40.577,27.264-6.965,4.465-14.19,8.795-21.403,13.117l-11.039,6.344c-3.675,2.116-7.499,4.123-11.245,6.182-15.127,8.124-30.774,15.797-46.91,22.769-16.171,6.92-32.775,13.143-49.648,18.577-33.784,10.819-68.581,18.178-102.944,22.362l-12.884,1.477c-4.283.419-8.551.755-12.828,1.128l-6.413.539-6.376.376-12.75.715-12.66.379-6.33.177c-2.103.039-4.189.024-6.284.037l-12.559.025c-4.179-.014-8.308-.162-12.465-.242l-6.225-.148-3.112-.076-3.385-.152-6.815-.33c-1.154-.05-2.252-.121-3.328-.2l-3.26-.226-6.514-.462-6.267-.544c-2.068-.188-4.224-.355-6.22-.562l-6.051-.608c-16.055-1.645-31.055-3.512-45.544-5.24-14.476-1.736-28.418-3.35-42.044-4.683-13.613-1.321-26.939-2.432-39.969-3.072-13.042-.658-25.852-.941-38.476-.821-12.617.13-24.999.812-37.244,1.855l-9.147.877-9.058,1.132c-3.033.328-6.009.841-9,1.298-2.982.488-6,.851-8.944,1.459l-8.881,1.646c-2.947.59-5.863,1.281-8.799,1.904l-4.398.951-4.349,1.112c-2.897.749-5.81,1.441-8.7,2.214-5.725,1.721-11.523,3.198-17.172,5.165-2.834.95-5.7,1.799-8.516,2.811l-8.433,3.081c-2.83.968-5.597,2.138-8.376,3.267-2.776,1.141-5.572,2.221-8.339,3.391l-8.244,3.693-4.129,1.831-4.07,2.006c-21.768,10.524-42.917,23.02-63.345,37.344-20.403,14.379-40.076,30.555-58.999,48.133-4.672,4.495-9.396,8.911-14.052,13.445l-13.765,13.951-13.453,14.462c-2.274,2.366-4.404,4.943-6.606,7.416l-6.564,7.483c-17.371,20.147-34.015,41.334-50.024,63.28-7.826,11.171-15.829,22.161-23.348,33.675l-5.723,8.547-2.857,4.279-2.773,4.365-11.103,17.451c-14.504,23.556-28.709,47.433-42.038,72.062-13.555,24.441-26.273,49.572-38.817,74.823-10.52,21.49-20.663,43.254-30.511,65.218v97.489c20.219-49.686,41.699-98.511,64.885-145.875,12.301-24.755,24.759-49.38,37.997-73.243,13.024-24.072,26.862-47.315,40.955-70.212l10.776-16.935,2.69-4.237,2.767-4.142,5.541-8.273c7.283-11.162,15.006-21.748,22.556-32.539,15.429-21.145,31.403-41.471,47.971-60.689l6.254-7.13c2.096-2.354,4.128-4.822,6.286-7.06l12.768-13.728,13.014-13.19c4.393-4.273,8.838-8.423,13.234-12.662,17.786-16.522,36.129-31.586,54.96-44.859,18.855-13.216,38.183-24.613,57.923-34.161l3.69-1.826,3.739-1.651,7.458-3.347c2.502-1.057,5.028-2.025,7.535-3.058,2.51-1.021,5.006-2.085,7.56-2.95l7.604-2.782c2.538-.915,5.123-1.67,7.677-2.529,5.087-1.785,10.319-3.094,15.473-4.659,2.605-.696,5.234-1.314,7.846-1.992l3.921-1.008,3.973-.854c2.652-.56,5.282-1.191,7.947-1.724l8.037-1.488c2.659-.557,5.406-.875,8.109-1.321,2.714-.415,5.409-.888,8.175-1.18l8.246-1.034,8.359-.798c11.208-.951,22.593-1.587,34.308-1.707,11.725-.109,23.713.151,36.04.772,12.31.602,25.052,1.664,38.213,2.941,13.18,1.29,26.82,2.866,41.224,4.594,14.421,1.719,29.573,3.608,46.211,5.314l6.282.631,3.228.301,3.293.289,6.586.571,6.934.493,3.471.24,1.736.118,1.831.095,7.36.357,3.647.162,3.259.081,6.518.156c4.355.085,8.671.237,13.058.252l13.19-.025c2.202-.014,4.389,0,6.602-.041l6.668-.184,13.337-.402,13.469-.753,6.736-.4,6.794-.568c4.532-.393,9.05-.752,13.592-1.198l13.684-1.567c36.51-4.443,73.762-12.307,109.946-23.898,18.07-5.817,35.848-12.483,53.119-19.877,17.232-7.444,33.888-15.613,49.916-24.222,3.965-2.176,8.022-4.312,11.9-6.542l11.65-6.696c7.589-4.543,15.191-9.104,22.476-13.772,14.646-9.303,28.779-18.807,42.204-28.354,13.448-9.543,26.436-19.115,38.989-28.612,12.505-9.484,24.697-18.906,36.59-28.191l8.858-6.927,4.42-3.459,5.372-4.328c3.567-2.895,7.217-5.807,10.697-8.71l10.165-8.698c3.454-2.916,6.595-5.788,9.823-8.677l4.821-4.333c1.609-1.446,3.228-2.895,4.733-4.32,6.126-5.719,12.354-11.483,18.126-17.116,11.865-11.375,22.861-22.445,33.723-33.38l31.264-31.814,15.066-15.257,14.783-14.745,7.298-7.137,3.648-3.57,3.617-3.452,7.228-6.901c2.408-2.299,4.792-4.45,7.187-6.685,38.232-35.634,75.591-63.749,113.186-82.707,18.828-9.332,37.709-16.437,57.074-21.416l3.624-.962,1.81-.49c.602-.168,1.226-.253,1.837-.384l7.357-1.5c4.854-1.198,9.901-1.696,14.862-2.54l3.73-.606c1.259-.149,2.534-.241,3.8-.369l7.601-.771c1.285-.131,2.49-.288,3.84-.408l4.437-.251,8.872-.53c1.476-.075,2.963-.222,4.429-.242l4.406-.107,8.81-.243,2.203-.067,2.186.016,4.371.034,8.741.037c2.899.073,5.78.228,8.671.326l4.333.159c1.444.054,2.894.08,4.318.212l8.583.616,4.293.29,4.248.448,8.496.869c2.83.293,5.607.755,8.415,1.111l4.202.562,2.1.282,2.074.357,8.303,1.394c10.994,2.044,21.9,4.3,32.477,7.236,10.609,2.849,21.041,6.055,31.097,9.82,10.078,3.717,19.88,7.834,29.242,12.343,9.354,4.499,18.285,9.414,26.43,14.472,1.602,1.014,3.178,2.033,4.722,3.047v-44.547c-4.738-2.578-9.589-5.069-14.531-7.447Z"/>
</svg>