<?xml version="1.0" encoding="UTF-8"?>
<svg id="Layer_1" data-name="Layer 1" xmlns="http://www.w3.org/2000/svg" width="96" height="48" viewBox="0 0 96 48">
  <defs>
    <style>
      .cls-1 {
        fill: #5c5f3b;
      }

      .cls-2 {
        fill: #4d2b13;
      }

      .cls-3 {
        fill: #efad30;
      }
    </style>
  </defs>
  <path class="cls-3" d="M88.119,17.799H28.949c-1.67,0-3.023-1.354-3.023-3.023s1.354-3.023,3.023-3.023h59.17c1.67,0,3.023,1.354,3.023,3.023s-1.354,3.023-3.023,3.023Z"/>
  <path class="cls-1" d="M88.119,27.023h-41.419c-1.67,0-3.023-1.354-3.023-3.023s1.354-3.023,3.023-3.023h41.419c1.67,0,3.023,1.354,3.023,3.023s-1.354,3.023-3.023,3.023Z"/>
  <path class="cls-2" d="M88.119,36.248h-28.993c-1.67,0-3.023-1.354-3.023-3.023s1.354-3.023,3.023-3.023h28.993c1.67,0,3.023,1.354,3.023,3.023s-1.354,3.023-3.023,3.023Z"/>
</svg>