<?xml version="1.0" encoding="UTF-8"?>
<svg id="Layer_2" data-name="Layer 2" xmlns="http://www.w3.org/2000/svg" width="1920" height="687.917" viewBox="0 0 1920 687.917">
  <defs>
    <style>
      .cls-1 {
        fill: #e8701b;
      }

      .cls-2 {
        fill: #5c5f3b;
      }

      .cls-3 {
        fill: #4d2b13;
      }

      .cls-4 {
        fill: #c54724;
      }

      .cls-5 {
        fill: #efad30;
      }
    </style>
  </defs>
  <path class="cls-4" d="M1834.437,637.636l-9.683-1.541c-3.22-.525-6.383-1.141-9.577-1.707l-38.236-6.95-37.829-7.665c-6.296-1.294-12.616-2.544-18.892-3.877l-18.722-4.195c-99.943-22.185-197.772-48.605-294.653-77.157l-36.287-10.794-18.143-5.398-16.153-4.687c-5.287-1.614-10.693-2.946-16.072-4.347-5.382-1.392-10.738-2.853-16.207-4.038-5.449-1.233-10.864-2.555-16.337-3.733l-16.492-3.357c-22.089-4.226-44.484-7.689-67.14-10.457-22.696-2.652-45.65-4.6-68.804-5.984l-17.41-.911-17.504-.639c-5.823-.252-11.709-.314-17.573-.447-5.866-.126-11.729-.261-17.638-.264-23.548-.268-47.319.09-71.22.746-11.934.292-23.959.796-35.963,1.246-12.056.563-24.093,1.085-36.216,1.771-24.216,1.302-48.557,2.84-73.091,4.544-49.024,3.371-98.696,7.253-149.072,10.579-50.435,3.262-101.567,6.044-153.723,6.719-52.09.764-105.259-.672-159.223-5.989-26.97-2.623-54.18-6.476-81.438-11.563-27.258-5.107-54.587-11.548-81.743-19.608-54.308-16.073-107.833-39.319-157.411-69.492l-18.404-11.615-17.934-12.317c-3.019-2.015-5.873-4.243-8.786-6.395l-8.697-6.511c-4.172-3.034-8.178-6.256-12.164-9.501v48.196c2.472,1.848,4.935,3.707,7.507,5.43l19.019,13.059c6.479,4.146,12.998,8.234,19.516,12.321,52.572,32.01,109.303,56.602,166.414,73.502,28.559,8.479,57.2,15.224,85.651,20.553,28.449,5.31,56.746,9.307,84.656,12.025,55.854,5.505,110.454,6.952,163.55,6.176,53.184-.69,104.934-3.515,155.716-6.798,50.698-3.347,100.411-7.233,149.19-10.587,24.421-1.696,48.562-3.22,72.521-4.509,12.002-.679,23.877-1.194,35.781-1.75,11.827-.443,23.686-.941,35.411-1.227,23.5-.645,46.809-.996,69.802-.732,5.78.001,11.495.134,17.214.257,5.716.13,11.463.188,17.122.436l17.027.621,16.899.884c22.451,1.343,44.634,3.228,66.486,5.779,21.801,2.666,43.272,5.989,64.378,10.025l15.74,3.203c5.218,1.124,10.368,2.385,15.559,3.557,5.213,1.125,10.296,2.518,15.41,3.84,5.11,1.331,10.252,2.592,15.259,4.126l15.412,4.469,18.258,5.433,36.517,10.862c97.516,28.738,196.089,55.369,297.239,77.823l18.945,4.243c6.359,1.35,12.773,2.62,19.157,3.932l38.37,7.773,38.89,7.07c3.251.576,6.46,1.2,9.745,1.736l9.884,1.574,19.771,3.137,9.886,1.563c3.279.537,6.701.932,10.045,1.404l20.175,2.71c3.372.443,6.706.915,10.108,1.331l10.348,1.132,11.422,1.234v-38.472c-22.422-2.462-44.496-5.332-66.195-8.735l-19.368-3.073Z"/>
  <path class="cls-1" d="M1843.312,583.5l-9.395-1.492c-3.127-.51-6.222-1.114-9.335-1.666l-37.3-6.779-37.053-7.51c-6.17-1.268-12.356-2.489-18.513-3.797l-18.402-4.125c-98.214-21.8-194.977-47.916-290.947-76.203l-35.958-10.696-17.979-5.348-17.214-4.999c-5.688-1.728-11.474-3.163-17.238-4.664-5.767-1.492-11.513-3.049-17.348-4.322-5.819-1.321-11.614-2.728-17.452-3.985l-17.569-3.577c-23.499-4.5-47.219-8.162-71.099-11.076-23.906-2.796-47.966-4.836-72.127-6.278l-18.143-.948-18.188-.665c-6.057-.26-12.143-.327-18.219-.464-6.077-.131-12.152-.268-18.247-.273-24.343-.275-48.775.093-73.251.765-12.233.3-24.497.813-36.754,1.274-12.275.572-24.543,1.106-36.841,1.801-24.585,1.323-49.211,2.879-73.907,4.594-49.376,3.396-98.988,7.273-148.903,10.567-49.938,3.231-100.184,5.954-150.866,6.606-50.648.747-101.767-.672-153.02-5.721-25.623-2.489-51.275-6.134-76.824-10.902-25.547-4.787-50.996-10.792-76.141-18.253-50.29-14.887-99.219-36.206-144.507-63.745l-16.81-10.604-16.379-11.254c-2.762-1.833-5.365-3.879-8.027-5.847l-7.95-5.952c-5.367-3.886-10.43-8.143-15.569-12.307l-7.691-6.268c-2.54-2.115-4.972-4.35-7.461-6.521l-7.424-6.562-3.709-3.284c-1.22-1.081-2.366-2.235-3.551-3.352v51.037l5.633,4.596c5.471,4.435,10.867,8.955,16.581,13.106l8.471,6.342c2.837,2.096,5.616,4.269,8.557,6.229l17.464,11.995,17.922,11.309c48.281,29.376,100.417,52.04,153.51,67.755,26.548,7.879,53.309,14.188,80.05,19.198,26.74,4.991,53.48,8.781,80.043,11.364,53.144,5.237,105.693,6.667,157.348,5.908,51.71-.668,102.574-3.432,152.859-6.685,50.237-3.316,99.89-7.197,149.021-10.575,24.583-1.708,49.01-3.25,73.337-4.559,12.176-.688,24.283-1.215,36.405-1.78,12.081-.454,24.178-.96,36.202-1.255,24.075-.661,48.046-1.022,71.834-.751,5.965.003,11.893.139,17.822.266,5.928.135,11.875.198,17.768.453l17.711.647,17.632.922c23.458,1.401,46.747,3.377,69.809,6.073,23.026,2.812,45.822,6.335,68.337,10.644l16.817,3.423c5.583,1.202,11.113,2.55,16.674,3.809,5.579,1.212,11.053,2.702,16.552,4.124,5.495,1.431,11.016,2.794,16.424,4.443l16.473,4.781,18.094,5.383,36.188,10.764c96.605,28.472,194.112,54.8,293.532,76.869l18.625,4.174c6.24,1.325,12.52,2.566,18.778,3.852l37.594,7.618,37.953,6.899c3.169.562,6.311,1.174,9.504,1.695l9.596,1.526,19.194,3.046c20.933,3.284,42.171,6.056,63.686,8.443v-38.509c-19.446-2.209-38.753-4.761-57.897-7.767l-18.791-2.982Z"/>
  <path class="cls-5" d="M1852.186,529.365l-9.107-1.444c-3.035-.494-6.062-1.086-9.093-1.624l-36.364-6.608-36.277-7.356c-6.044-1.242-12.095-2.435-18.133-3.717l-18.082-4.056c-96.485-21.414-192.181-47.227-287.24-75.249l-35.629-10.597-17.815-5.298-18.276-5.311c-6.09-1.842-12.255-3.379-18.404-4.98-6.151-1.592-12.289-3.246-18.49-4.605-6.19-1.409-12.364-2.901-18.567-4.237l-18.647-3.798c-24.909-4.774-49.952-8.636-75.059-11.696-25.116-2.94-50.282-5.071-75.45-6.572l-18.876-.986-18.872-.692c-6.292-.267-12.577-.339-18.865-.481-6.288-.135-12.575-.276-18.856-.281-25.137-.282-50.232.096-75.283.784-12.531.309-25.035.83-37.545,1.302-12.493.581-24.993,1.127-37.465,1.831-24.954,1.342-49.866,2.918-74.724,4.644-99.429,6.791-198.286,15.684-296.742,17.05-49.206.731-98.274-.672-146.818-5.453-24.275-2.354-48.369-5.793-72.21-10.241-23.836-4.467-47.405-10.037-70.539-16.898-46.272-13.701-90.606-33.093-131.603-57.998l-15.216-9.593-14.824-10.191c-2.505-1.65-4.857-3.516-7.268-5.299l-7.202-5.392c-4.869-3.507-9.454-7.387-14.118-11.163l-6.984-5.681c-2.307-1.919-4.515-3.96-6.778-5.933l-6.752-5.965-3.377-2.981c-1.125-.994-2.181-2.068-3.275-3.098l-13.027-12.474c-4.22-4.288-8.366-8.655-12.556-12.976-4.111-4.108-7.893-8.541-11.782-12.869v55.522l11.264,10.79c1.169,1.099,2.297,2.241,3.5,3.306l3.609,3.192,7.221,6.381c2.421,2.111,4.785,4.287,7.255,6.343l7.477,6.091c4.996,4.047,9.914,8.19,15.13,11.961l7.724,5.783c2.586,1.911,5.114,3.904,7.798,5.681l15.909,10.932,16.328,10.298c43.99,26.742,91.531,47.479,140.606,62.007,24.537,7.279,49.418,13.153,74.448,17.843,25.033,4.672,50.214,8.255,75.429,10.703,50.434,4.969,100.933,6.383,151.145,5.64,50.237-.646,100.215-3.35,150.003-6.572,49.775-3.285,99.369-7.16,148.851-10.564,24.745-1.719,49.458-3.281,74.154-4.609,12.35-.698,24.688-1.236,37.029-1.81,12.333-.464,24.67-.98,36.993-1.282,24.65-.677,49.283-1.048,73.866-.771,6.151.005,12.291.143,18.431.275,6.14.139,12.286.207,18.414.469l18.395.673,18.365.959c24.465,1.46,48.86,3.527,73.132,6.367,24.251,2.958,48.371,6.681,72.297,11.264l17.895,3.644c5.948,1.281,11.858,2.714,17.789,4.061,5.945,1.298,11.81,2.885,17.693,4.407,5.88,1.531,11.781,2.997,17.59,4.759l17.535,5.093,17.929,5.333,35.859,10.666c95.695,28.207,192.135,54.231,289.826,75.914l18.306,4.104c6.121,1.299,12.266,2.512,18.398,3.772l36.818,7.464,37.017,6.727c3.088.548,6.162,1.148,9.262,1.653l9.308,1.478,18.616,2.954c18.359,2.883,36.83,5.338,55.389,7.469v-38.536c-16.532-1.947-33.073-4.169-49.6-6.766l-18.214-2.891Z"/>
  <path class="cls-2" d="M1861.061,475.23l-8.819-1.396c-2.942-.478-5.902-1.059-8.852-1.583l-35.428-6.437-35.501-7.201c-5.918-1.216-11.835-2.38-17.754-3.637l-17.763-3.986c-94.755-21.029-189.385-46.537-283.533-74.294l-35.301-10.499-17.65-5.249-19.337-5.624c-6.492-1.955-13.035-3.596-19.569-5.297-6.536-1.692-13.065-3.443-19.632-4.889-6.56-1.496-13.114-3.075-19.682-4.489l-19.724-4.018c-26.319-5.047-52.686-9.109-79.018-12.315-26.326-3.084-52.598-5.307-78.773-6.866l-19.609-1.023-19.555-.718c-6.527-.275-13.011-.352-19.511-.498-6.498-.139-12.998-.283-19.464-.29-25.932-.29-51.688.099-77.315.803-12.83.317-25.573.847-38.335,1.33-12.712.59-25.443,1.147-38.089,1.861-25.323,1.362-50.521,2.956-75.54,4.694-100.105,6.857-198.168,15.622-293.716,16.925-47.763.714-94.781-.672-140.615-5.185-22.927-2.219-45.464-5.451-67.597-9.58-22.125-4.147-43.814-9.282-64.937-15.542-42.255-12.515-81.993-29.98-118.699-52.25l-13.622-8.581-13.269-9.127c-2.248-1.468-4.349-3.152-6.51-4.75l-6.455-4.833c-4.37-3.127-8.478-6.63-12.667-10.018l-6.276-5.094c-2.075-1.722-4.057-3.571-6.094-5.346l-6.079-5.368-3.045-2.679c-1.015-.893-1.966-1.87-2.953-2.8l-11.768-11.263c-3.818-3.888-7.573-7.855-11.375-11.766-3.864-3.838-7.411-8.056-11.086-12.124l-5.485-6.136-1.373-1.532-1.328-1.593-2.654-3.189c-3.522-4.261-7.159-8.456-10.483-12.824-3.371-4.341-6.881-8.606-10.053-13.049-3.128-4.187-6.183-8.41-9.17-12.665v62.674c.135.163.272.325.407.488l2.825,3.392,1.414,1.694,1.465,1.639,5.858,6.561c3.926,4.351,7.722,8.84,11.86,12.968,4.073,4.197,8.1,8.443,12.199,12.61l12.646,12.108c1.062,1,2.086,2.044,3.178,3.008l3.277,2.89,6.548,5.785c2.194,1.913,4.334,3.896,6.571,5.756l6.77,5.503c4.52,3.659,8.961,7.425,13.679,10.817l6.976,5.223c2.335,1.727,4.612,3.538,7.039,5.133l14.354,9.869,14.734,9.287c39.7,24.108,82.644,42.918,127.702,56.26,22.526,6.679,45.527,12.118,68.846,16.488,23.324,4.352,46.948,7.729,70.815,10.042,47.725,4.7,96.173,6.098,144.942,5.372,97.577-1.347,196.194-10.201,295.827-17.012,24.907-1.73,49.905-3.311,74.971-4.659,12.524-.707,25.094-1.256,37.653-1.84,12.586-.475,25.162-.999,37.784-1.31,25.225-.693,50.519-1.074,75.897-.79,6.337.006,12.688.148,19.04.284,6.352.143,12.697.217,19.06.486l19.078.699,19.098.997c25.472,1.518,50.972,3.677,76.454,6.661,25.477,3.104,50.921,7.026,76.256,11.883l18.972,3.864c6.313,1.359,12.602,2.878,18.904,4.313,6.312,1.385,12.568,3.069,18.835,4.691,6.266,1.631,12.545,3.2,18.756,5.076l18.597,5.406,17.765,5.283,35.53,10.568c94.784,27.942,190.157,53.662,286.119,74.96l17.986,4.035c6.002,1.274,12.013,2.458,18.019,3.692l36.042,7.309,36.081,6.556c3.007.534,6.013,1.123,9.02,1.612l9.02,1.43,18.04,2.863c15.723,2.471,31.427,4.595,47.091,6.461v-38.552c-13.681-1.675-27.453-3.564-41.302-5.742l-17.637-2.799Z"/>
  <path class="cls-3" d="M22.459,115.981c3.07,4.306,6.485,8.448,9.756,12.663,3.223,4.24,6.765,8.319,10.188,12.462l2.579,3.102,1.29,1.549,1.333,1.486,5.323,5.952c3.565,3.946,7.005,8.046,10.75,11.758l11.018,11.4,11.387,10.896c.954.9,1.874,1.847,2.855,2.71l2.944,2.587,5.876,5.188c1.968,1.715,3.883,3.505,5.887,5.168l6.062,4.916c4.045,3.271,8.008,6.66,12.228,9.672l6.229,4.664c2.084,1.542,4.11,3.172,6.28,4.585l12.799,8.806,13.14,8.276c17.702,10.747,36.142,20.327,55.289,28.746,19.156,8.399,38.966,15.738,59.509,21.767,20.515,6.079,41.635,11.082,63.244,15.133,21.616,4.033,43.682,7.203,66.202,9.381,45.015,4.432,91.413,5.814,138.74,5.104,94.669-1.284,192.491-10.01,292.801-16.888,25.069-1.741,50.353-3.341,75.787-4.709,12.698-.717,25.5-1.277,38.277-1.87,12.84-.486,25.655-1.018,38.575-1.338,25.8-.708,51.756-1.1,77.929-.809,6.522.008,13.086.152,19.648.293,6.564.147,13.108.226,19.706.503l19.762.726,19.831,1.035c26.479,1.577,53.085,3.827,79.777,6.955,26.703,3.25,53.47,7.372,80.216,12.502l20.05,4.085c6.678,1.438,13.347,3.042,20.019,4.565,6.677,1.472,13.325,3.252,19.977,4.974,6.651,1.731,13.309,3.403,19.922,5.392l19.658,5.718,17.601,5.234,35.201,10.47c93.873,27.676,188.18,53.093,282.412,74.006l17.666,3.965c5.883,1.248,11.759,2.405,17.639,3.613l35.267,7.154,35.145,6.385c2.925.52,5.864,1.097,8.778,1.57l8.732,1.382,17.463,2.771,8.731,1.39c2.917.483,5.773.797,8.663,1.205l17.288,2.323c1.368.181,2.74.37,4.112.556v-38.62l-16.053-2.157c-2.81-.397-5.568-.696-8.422-1.17l-8.529-1.359-17.06-2.708-8.531-1.348c-2.849-.462-5.741-1.031-8.61-1.541l-34.492-6.265-34.725-7.046c-5.792-1.19-11.574-2.326-17.374-3.557l-17.443-3.917c-93.025-20.643-186.589-45.849-279.826-73.34l-34.971-10.401-17.486-5.199-20.399-5.936c-6.894-2.069-13.816-3.812-20.735-5.613-6.92-1.791-13.84-3.64-20.773-5.172-6.93-1.584-13.864-3.248-20.797-4.741l-20.802-4.238c-27.729-5.321-55.42-9.583-82.978-12.935-27.536-3.229-54.914-5.543-82.095-7.16l-20.342-1.061-20.239-.744c-6.762-.282-13.445-.364-20.157-.515-6.709-.144-13.421-.29-20.073-.299-26.727-.297-53.145.103-79.346.822-13.129.325-26.11.864-39.126,1.357-12.93.599-25.893,1.168-38.713,1.891-25.692,1.382-51.175,2.995-76.357,4.744-100.781,6.924-198.05,15.561-290.69,16.801-46.321.698-91.288-.672-134.413-4.917-21.58-2.084-42.558-5.109-62.983-8.919-20.415-3.827-40.223-8.526-59.336-14.187-19.144-5.613-37.447-12.412-55.079-20.142-17.621-7.75-34.512-16.529-50.717-26.361l-12.028-7.57c-3.891-2.709-7.795-5.397-11.714-8.064-1.99-1.286-3.842-2.789-5.75-4.203l-5.707-4.274c-3.872-2.747-7.502-5.873-11.215-8.874l-5.569-4.507c-1.842-1.526-3.6-3.181-5.41-4.759l-5.407-4.771-2.712-2.376c-.905-.792-1.751-1.672-2.631-2.502l-10.509-10.051-10.195-10.556c-3.471-3.422-6.662-7.252-9.975-10.915l-4.95-5.527-1.241-1.379-1.204-1.448-2.408-2.899c-3.194-3.871-6.518-7.683-9.507-11.629-3.039-3.923-6.235-7.781-9.071-11.773-11.797-15.79-22.378-31.949-31.618-48.397C13.27,29.989,6.043,15.082,0-.036v83.372c6.98,11.078,14.48,21.966,22.459,32.645Z"/>
</svg>