<?xml version="1.0" encoding="UTF-8"?>
<svg id="Layer_2" data-name="Layer 2" xmlns="http://www.w3.org/2000/svg" width="1920" height="552.558" viewBox="0 0 1920 552.558">
  <defs>
    <style>
      .cls-1 {
        fill: #e8701b;
      }

      .cls-2 {
        fill: #5c5f3b;
      }

      .cls-3 {
        fill: #4d2b13;
      }

      .cls-4 {
        fill: #c54724;
      }

      .cls-5 {
        fill: #efad30;
      }
    </style>
  </defs>
  <path class="cls-4" d="M100.701,259.575l11.811-4.013,2.954-1,2.994-.943,5.99-1.882c7.941-2.573,16.09-4.836,24.19-7.158,4.058-1.149,8.205-2.16,12.305-3.24l6.168-1.589c2.055-.531,4.161-.979,6.239-1.47l12.514-2.866,12.256-2.491,6.122-1.222,6.067-1.095,12.129-2.162,12.028-1.919,6.012-.948,5.967-.842c31.849-4.536,63.16-7.708,94.121-9.976,30.965-2.277,61.624-3.756,92.094-4.739,60.928-1.94,121.122-1.948,180.962-1.18,59.833.784,119.286,2.416,178.491,4.288,118.389,3.739,235.893,8.544,352.382,10.715,58.216,1.055,116.166,1.454,173.524.405,57.318-1.078,114.159-3.557,169.179-9.022,27.468-2.763,54.405-6.376,80.266-11.073,3.277-.539,6.398-1.24,9.601-1.853l4.777-.946,2.389-.471,2.517-.556,20.214-4.484c6.772-1.422,13.395-3.151,20.068-4.773l9.999-2.455,4.994-1.236,4.938-1.343,19.755-5.356c6.532-1.878,13.001-3.864,19.507-5.781,6.541-1.861,12.896-4.026,19.304-6.103l9.603-3.125c3.204-1.037,6.31-2.223,9.471-3.324,25.256-8.849,49.87-18.655,73.341-29.758,23.485-11.075,45.99-23.261,66.912-36.824l7.779-5.141c1.292-.859,2.609-1.697,3.884-2.571l3.761-2.679,7.536-5.335c2.489-1.796,4.861-3.69,7.304-5.522l3.644-2.764c.604-.463,1.224-.913,1.816-1.385l1.751-1.438,7.023-5.73,1.76-1.427,1.692-1.48,3.379-2.962,3.387-2.953.427-.371V0c-.193.217-.379.44-.573.656-1.758,1.934-3.585,3.822-5.359,5.75-.904.952-1.756,1.94-2.696,2.87l-2.812,2.797-2.799,2.81c-.928.94-1.847,1.888-2.849,2.783l-5.855,5.477-1.458,1.376-1.535,1.327-3.06,2.664-3.049,2.677-1.526,1.339-1.599,1.292-6.372,5.198-1.587,1.307c-.539.429-1.106.839-1.657,1.261l-3.324,2.518c-2.23,1.67-4.382,3.399-6.662,5.042l-6.911,4.887-3.444,2.46c-1.173.803-2.39,1.574-3.581,2.364l-7.168,4.739c-19.305,12.522-40.334,23.923-62.479,34.367-22.126,10.472-45.55,19.808-69.726,28.277-3.026,1.054-5.988,2.191-9.064,3.184l-9.22,2.998c-6.152,1.993-12.243,4.076-18.553,5.866-6.269,1.846-12.494,3.759-18.792,5.572l-19.086,5.173-4.77,1.3-4.838,1.196-9.687,2.378c-6.467,1.571-12.874,3.249-19.46,4.629l-19.634,4.356-2.44.539-2.253.443-4.504.891-4.503.897-2.255.448-2.313.406c-24.532,4.455-50.494,7.952-77.176,10.635-26.714,2.663-54.103,4.598-81.848,6.011-27.752,1.411-55.872,2.301-84.207,2.825-56.687,1.037-114.207.644-172.114-.405-115.894-2.158-233.261-6.954-351.876-10.702-59.323-1.876-118.992-3.514-179.197-4.304-60.217-.772-120.925-.769-182.698,1.196-30.895.997-62.065,2.499-93.691,4.824-31.621,2.318-63.764,5.564-96.738,10.261l-6.175.873-6.246.984-12.498,1.995-12.655,2.254-6.331,1.144-6.419,1.28-12.856,2.616-13.249,3.032c-2.199.52-4.432.998-6.602,1.557l-6.513,1.676c-4.327,1.137-8.712,2.212-12.987,3.421-8.531,2.44-17.12,4.833-25.455,7.53l-6.293,1.978-3.145.992-3.097,1.047-12.38,4.206c-16.363,5.772-32.495,11.841-48.161,18.405-13.55,5.614-26.847,11.492-39.939,17.578v42.359c17.813-8.653,35.987-16.875,54.579-24.575,15.05-6.308,30.492-12.111,46.122-17.628Z"/>
  <path class="cls-1" d="M118.761,311.375l10.997-3.737,2.75-.932,2.778-.873,5.556-1.744c7.377-2.396,14.895-4.473,22.378-6.624,3.747-1.064,7.553-1.984,11.327-2.98l5.673-1.465c1.89-.49,3.814-.894,5.719-1.345l11.46-2.629,11.395-2.313,5.697-1.139,5.687-1.024,11.374-2.029,11.355-1.81,5.678-.897,5.668-.799c30.235-4.306,60.355-7.372,90.37-9.568,30.017-2.207,59.944-3.655,89.805-4.617,59.718-1.902,119.173-1.919,178.474-1.156,59.301.777,118.442,2.398,177.479,4.265,118.066,3.727,235.765,8.544,353.108,10.733,58.658,1.062,117.224,1.471,175.546.405,58.3-1.102,116.421-3.608,173.656-9.288,28.595-2.879,56.93-6.657,84.695-11.702,3.494-.579,6.905-1.335,10.36-1.998l5.167-1.025,2.583-.512,2.627-.579,21.044-4.666c7.039-1.483,13.972-3.285,20.94-4.979l10.445-2.567,5.218-1.293,5.178-1.406,20.714-5.618c6.865-1.973,13.686-4.061,20.531-6.082,6.872-1.961,13.607-4.246,20.379-6.442l10.152-3.308c3.386-1.098,6.699-2.356,10.053-3.525,26.805-9.395,53.125-19.872,78.524-31.882,25.407-11.982,50.027-25.292,73.266-40.347l8.654-5.717c1.438-.957,2.896-1.891,4.32-2.866l4.214-2.993,8.241-5.841v-48.543l-.019.015-7.306,5.96-1.823,1.495c-.616.491-1.258.959-1.885,1.44l-3.782,2.871c-2.535,1.902-5.002,3.868-7.582,5.73l-7.808,5.529-3.897,2.774c-1.32.904-2.679,1.771-4.016,2.66l-8.043,5.315c-21.623,14.014-44.767,26.54-68.833,37.889-24.054,11.378-49.184,21.386-74.908,30.4-3.219,1.122-6.388,2.33-9.646,3.385l-9.77,3.18c-6.518,2.112-12.988,4.314-19.629,6.205-6.609,1.949-13.185,3.965-19.817,5.873l-20.045,5.435-5.01,1.362-5.062,1.253-10.133,2.489c-6.763,1.644-13.479,3.395-20.332,4.835l-20.465,4.539-2.55.563-2.448.483-4.895.97c-3.279.627-6.488,1.345-9.831,1.896-26.436,4.802-53.796,8.465-81.604,11.264-55.69,5.53-112.918,8.017-170.533,9.102-57.65,1.054-115.786.652-174.136-.405-116.748-2.176-234.31-6.985-352.602-10.72-59.155-1.87-118.513-3.499-178.186-4.281-59.677-.766-119.647-.756-180.21,1.173-30.285.977-60.723,2.447-91.401,4.702-30.675,2.246-61.626,5.386-92.987,9.853l-5.876.829-5.911.932-11.825,1.886-11.901,2.122-5.952,1.074-5.993,1.197-11.995,2.438-12.195,2.795c-2.026.479-4.077.913-6.082,1.432l-6.019,1.552c-4.002,1.054-8.045,2.037-12.009,3.161-7.914,2.27-15.872,4.477-23.643,6.996l-5.859,1.84-2.929.922-2.892.979-11.565,3.93c-15.312,5.406-30.455,11.094-45.238,17.291-20.783,8.607-41.063,17.901-60.922,27.736v42.897c24.585-12.729,49.737-24.58,75.562-35.271,14.167-5.943,28.62-11.364,43.199-16.514Z"/>
  <path class="cls-5" d="M96.545,378.576c13.284-5.577,26.748-10.616,40.276-15.401l10.183-3.46,2.545-.865,2.562-.803,5.123-1.606c6.812-2.219,13.699-4.11,20.566-6.091,3.436-.978,6.901-1.807,10.35-2.72l5.178-1.341c1.726-.45,3.467-.81,5.199-1.219l10.407-2.392,10.533-2.136,5.271-1.057,5.308-.953,10.619-1.896,10.682-1.701,5.343-.846,5.369-.755c57.267-8.166,115.665-11.718,174.135-13.656,58.508-1.865,117.224-1.889,175.987-1.132,58.768.77,117.598,2.381,176.467,4.243,117.743,3.714,235.637,8.544,353.834,10.751,59.101,1.069,118.283,1.488,177.568.405,59.281-1.126,118.683-3.658,178.133-9.554,29.722-2.995,59.455-6.939,89.124-12.331,3.711-.619,7.413-1.43,11.119-2.143l5.558-1.104c1.86-.359,3.704-.738,5.517-1.154l21.875-4.849c7.305-1.543,14.549-3.419,21.813-5.186l10.89-2.678,5.443-1.351,5.418-1.469,21.672-5.88c7.199-2.068,14.37-4.258,21.556-6.383,7.202-2.062,14.317-4.466,21.455-6.782l10.702-3.49c3.568-1.16,7.088-2.489,10.635-3.726,28.354-9.94,56.379-21.089,83.708-34.005,25.809-12.171,51.075-25.747,75.333-41.153v-45.917l-3.074,2.182c-1.468,1.005-2.969,1.969-4.452,2.956l-8.919,5.891c-23.94,15.505-49.199,29.156-75.187,41.412-25.983,12.284-52.818,22.964-80.091,32.524-3.412,1.19-6.788,2.469-10.229,3.586l-10.318,3.363c-6.883,2.232-13.732,4.553-20.705,6.545-6.949,2.053-13.875,4.172-20.841,6.173l-21.004,5.697-5.25,1.425-5.287,1.311-10.579,2.6c-7.058,1.717-14.085,3.541-21.204,5.042l-21.295,4.722c-1.779.41-3.544.771-5.303,1.11l-5.285,1.049c-3.531.677-7.03,1.451-10.59,2.042-28.341,5.15-57.098,8.979-86.034,11.892-57.905,5.746-116.414,8.259-175.01,9.368-58.614,1.071-117.366.659-176.158-.405-117.601-2.194-235.359-7.015-353.328-10.738-58.986-1.865-118.034-3.484-177.173-4.258-59.139-.761-118.37-.742-177.723,1.149-29.676.957-59.381,2.395-89.112,4.581-29.729,2.175-59.489,5.208-89.236,9.445l-5.578.785-5.576.881-11.152,1.777-11.146,1.989-5.573,1.003-5.568,1.115-11.134,2.26-11.142,2.557c-1.853.438-3.722.828-5.562,1.307l-5.524,1.427c-3.676.971-7.379,1.864-11.032,2.901-7.297,2.1-14.624,4.12-21.83,6.463l-5.425,1.702-2.712.852-2.688.912-10.751,3.653c-14.261,5.04-28.415,10.346-42.315,16.178-27.996,11.587-55.264,24.589-81.906,38.651v43.494c31.431-17.333,63.587-33.146,96.545-46.782Z"/>
  <path class="cls-2" d="M1766.456,281.512c-3.605,1.257-7.188,2.608-10.811,3.787l-10.868,3.546c-7.248,2.351-14.478,4.792-21.78,6.884-7.289,2.156-14.565,4.378-21.866,6.474l-21.962,5.959-5.491,1.488-5.511,1.368-11.025,2.712c-7.353,1.789-14.691,3.687-22.076,5.248l-22.126,4.904-2.771.609-2.837.564-5.676,1.128c-3.783.728-7.572,1.556-11.349,2.187-30.245,5.497-60.4,9.492-90.463,12.521-60.121,5.962-119.909,8.502-179.487,9.635-59.577,1.088-118.945.667-178.18-.405-118.455-2.212-236.408-7.046-354.054-10.756-58.818-1.861-117.554-3.468-176.161-4.236-58.6-.755-117.092-.729-175.235,1.125-29.066.937-58.04,2.343-86.823,4.459-28.783,2.103-57.352,5.031-85.486,9.036l-5.279.741-5.241.83-10.479,1.668-10.391,1.856-5.193.932-5.143,1.032-10.273,2.082-10.088,2.32c-1.68.397-3.366.744-5.042,1.182l-5.029,1.303c-3.35.887-6.713,1.69-10.054,2.641-6.679,1.93-13.376,3.764-20.018,5.93l-4.991,1.564-2.496.781-2.484.845-9.937,3.376c-13.211,4.674-26.375,9.598-39.392,15.064-35.076,14.509-69.361,31.605-102.889,50.445v44.128c38.429-22.53,77.674-42.733,117.528-59.21,12.401-5.211,24.875-9.869,37.353-14.287l9.368-3.183,2.341-.798,2.345-.732,4.689-1.468c6.248-2.042,12.504-3.746,18.753-5.558,3.125-.892,6.249-1.631,9.372-2.46l4.684-1.216c1.561-.41,3.12-.725,4.68-1.094l9.353-2.154,9.672-1.958,4.846-.974,4.928-.883,9.864-1.764,10.009-1.592,5.008-.795,5.07-.711c27.009-3.845,54.746-6.699,82.869-8.752,28.122-2.068,56.585-3.452,85.226-4.374,57.299-1.828,115.276-1.86,173.5-1.109,58.234.762,116.753,2.363,175.455,4.22,117.42,3.702,235.509,8.544,354.56,10.769,59.544,1.077,119.342,1.504,179.591.405,60.263-1.15,120.944-3.708,182.611-9.82,30.848-3.11,61.979-7.22,93.553-12.96,3.928-.659,7.92-1.525,11.878-2.288l5.948-1.183,2.974-.593,2.848-.625,22.705-5.032c7.571-1.604,15.126-3.553,22.685-5.392l11.336-2.79,5.667-1.408,5.659-1.532,22.631-6.142c7.533-2.162,15.055-4.456,22.581-6.684,7.533-2.162,15.027-4.686,22.53-7.121l11.25-3.673c3.75-1.222,7.478-2.622,11.217-3.927,29.903-10.485,59.633-22.306,88.89-36.129,17.509-8.257,34.873-17.153,51.972-26.828v-44.415c-22.166,13.551-45.027,25.654-68.271,36.615-27.911,13.191-56.452,24.542-85.274,34.647Z"/>
  <path class="cls-3" d="M1875.091,296.5c-29.839,14.097-60.085,26.121-90.457,36.771-3.798,1.325-7.588,2.747-11.394,3.988l-11.417,3.729c-7.613,2.471-15.222,5.031-22.855,7.224-7.628,2.26-15.256,4.585-22.89,6.775l-22.92,6.221-5.731,1.551-5.735,1.426-11.472,2.823c-7.648,1.862-15.296,3.833-22.948,5.455l-22.957,5.087-2.881.632-3.033.605-6.066,1.206c-4.034.778-8.114,1.661-12.108,2.332-32.149,5.845-63.703,10.005-94.892,13.15-62.336,6.178-123.404,8.744-183.965,9.901-60.54,1.105-120.524.674-180.202-.405-119.308-2.23-237.457-7.076-354.779-10.775-58.65-1.855-117.075-3.453-175.149-4.213-58.06-.75-115.814-.715-172.747,1.102-28.456.917-56.698,2.291-84.534,4.337-27.837,2.031-55.214,4.853-81.735,8.628l-4.98.698-4.907.779-9.806,1.559-9.636,1.724-4.813.861-4.717.949-9.412,1.904-9.035,2.082c-1.507.357-3.011.659-4.522,1.056l-4.534,1.179c-3.024.804-6.046,1.516-9.077,2.382-6.062,1.76-12.128,3.407-18.205,5.396l-4.558,1.427-2.28.711-2.28.778-9.123,3.099c-12.16,4.308-24.336,8.85-36.469,13.951-41.869,17.306-83.29,38.932-123.872,63.157v44.815c.244-.153.488-.308.732-.46,45.382-28.178,91.679-53.105,137.78-72.149,11.518-4.845,23.003-9.121,34.43-13.174l8.554-2.906,2.137-.731,2.129-.662,4.255-1.331c5.684-1.865,11.309-3.383,16.941-5.024,2.814-.806,5.598-1.454,8.395-2.2l4.189-1.092c1.396-.369,2.773-.641,4.16-.969l8.299-1.917,8.812-1.78,4.42-.891,4.549-.812,9.109-1.631,9.336-1.483,4.673-.744,4.771-.667c25.396-3.615,51.94-6.362,79.118-8.344,27.174-1.998,54.905-3.35,82.936-4.252,56.089-1.791,113.328-1.831,171.012-1.085,57.702.755,115.91,2.345,174.442,4.197,117.097,3.69,235.382,8.544,355.286,10.787,59.987,1.084,120.4,1.521,181.612.405,30.611-.567,61.428-1.533,92.559-3.115,31.134-1.589,62.576-3.784,94.53-6.971,31.975-3.226,64.503-7.502,97.982-13.589l3.129-.557,3.168-.621,6.34-1.255,6.339-1.262,3.169-.633,2.958-.649,23.536-5.215c7.838-1.665,15.703-3.687,23.557-5.599l11.783-2.901,5.891-1.466,5.899-1.595,23.59-6.404c7.867-2.257,15.739-4.653,23.605-6.985,7.863-2.263,15.738-4.906,23.605-7.461l11.8-3.856c3.933-1.283,7.867-2.755,11.799-4.128,31.452-11.03,62.888-23.523,94.073-38.252,9.562-4.509,19.104-9.207,28.61-14.115v-43.356c-14.833,8.147-29.827,15.729-44.909,22.842Z"/>
</svg>