<?xml version="1.0" encoding="UTF-8"?>
<svg id="Layer_2" data-name="Layer 2" xmlns="http://www.w3.org/2000/svg" width="180" height="180" viewBox="0 0 180 180">
  <defs>
    <style>
      .cls-1 {
        fill: #e8701b;
      }

      .cls-2 {
        fill: #5c5f3b;
      }

      .cls-3 {
        fill: #4d2b13;
      }

      .cls-4 {
        fill: #c54724;
      }

      .cls-5 {
        fill: #efad30;
      }
    </style>
  </defs>
  <path class="cls-4" d="M102.216,90c-.01,1.681-.32,3.208-.921,4.665-.599,1.451-1.508,2.821-2.657,3.972-1.152,1.149-2.522,2.058-3.972,2.657-1.458.6-2.985.911-4.666.921-1.681-.01-3.208-.32-4.666-.921-1.451-.599-2.82-1.508-3.972-2.657-1.149-1.152-2.059-2.522-2.657-3.972-.6-1.458-.911-2.985-.921-4.665.01-1.681.32-3.208.921-4.665.599-1.451,1.508-2.821,2.657-3.972,1.152-1.149,2.522-2.058,3.972-2.657,1.458-.6,2.985-.911,4.666-.921,1.681.01,3.208.32,4.666.921,1.451.599,2.82,1.508,3.972,2.657,1.149,1.152,2.059,2.522,2.657,3.972.6,1.458.911,2.985.921,4.665h-13.01c-.08.003.128.002.276-.009.109-.004.2-.008.326-.023.09-.009.14-.012.237-.028l.077-.011.081-.015c.162-.033.14-.039.061-.004-.08.033-.213.102-.306.167-.096.064-.149.116-.149.116,0,0,.051-.053.116-.149.064-.093.134-.226.167-.306.035-.079.029-.101-.004.061l-.015.081-.011.077c-.016.098-.019.147-.028.237-.014.127-.019.218-.023.326-.011.147-.012.356-.009.276.003.08.002-.129-.009-.276-.004-.109-.008-.2-.023-.326-.009-.09-.012-.14-.028-.237l-.011-.077-.015-.081c-.033-.162-.039-.14-.004-.061.033.08.103.213.167.306.064.096.116.149.116.149,0,0-.053-.051-.149-.116-.093-.064-.226-.134-.306-.167-.079-.035-.101-.029.061.004l.081.015.077.011c.098.016.147.019.237.028.126.015.217.019.326.023.148.011.356.012.276.009.08-.003-.128-.002-.276.009-.109.004-.2.008-.326.023-.09.009-.14.012-.237.028l-.077.011-.081.015c-.162.033-.14.039-.061.004.08-.033.213-.102.306-.167.096-.064.149-.116.149-.116,0,0-.051.053-.116.149-.064.093-.134.226-.167.306-.035.079-.029.101.004-.061l.015-.081.011-.077c.016-.098.019-.147.028-.237.014-.127.019-.218.023-.326.011-.147.012-.356.009-.276-.003-.08-.002.129.009.276.004.109.008.2.023.326.009.09.012.14.028.237l.011.077.015.081c.033.162.039.14.004.061-.033-.08-.103-.213-.167-.306-.064-.096-.116-.149-.116-.149,0,0,.053.051.149.116.093.064.226.134.306.167.079.035.101.029-.061-.004l-.081-.015-.077-.011c-.098-.016-.147-.019-.237-.028-.126-.015-.217-.019-.326-.023-.148-.011-.356-.012-.276-.009h13.01Z"/>
  <path class="cls-1" d="M120.864,90c-.005,4.073-.798,8.084-2.343,11.808-1.54,3.723-3.833,7.15-6.697,10.016-2.866,2.864-6.293,5.157-10.016,6.697-3.724,1.545-7.736,2.338-11.809,2.343-4.073-.005-8.084-.798-11.809-2.343-3.723-1.54-7.15-3.833-10.016-6.697-2.864-2.866-5.157-6.293-6.697-10.016-1.545-3.724-2.338-7.736-2.343-11.808.005-4.073.798-8.084,2.343-11.808,1.54-3.723,3.833-7.15,6.697-10.016,2.866-2.864,6.293-5.157,10.016-6.697,3.724-1.545,7.736-2.338,11.809-2.343,4.073.005,8.084.798,11.809,2.343,3.723,1.54,7.15,3.833,10.016,6.697,2.864,2.866,5.157,6.293,6.697,10.016,1.545,3.724,2.338,7.736,2.343,11.808h-13.01c-.008-2.404-.465-4.682-1.351-6.825-.883-2.138-2.211-4.129-3.879-5.8-1.67-1.668-3.662-2.995-5.8-3.879-2.143-.886-4.421-1.342-6.825-1.351-2.404.008-4.682.465-6.825,1.351-2.138.883-4.129,2.211-5.8,3.879-1.668,1.67-2.995,3.662-3.879,5.8-.886,2.143-1.342,4.421-1.351,6.825.008,2.404.465,4.682,1.351,6.825.883,2.138,2.211,4.129,3.879,5.8,1.67,1.668,3.662,2.995,5.8,3.879,2.143.886,4.421,1.342,6.825,1.351,2.404-.008,4.682-.465,6.825-1.351,2.138-.883,4.129-2.211,5.8-3.879,1.668-1.67,2.995-3.662,3.879-5.8.886-2.143,1.342-4.421,1.351-6.825h13.01Z"/>
  <path class="cls-5" d="M139.512,90c0,6.465-1.275,12.961-3.765,18.952-2.482,5.995-6.157,11.48-10.737,16.059-4.58,4.579-10.064,8.255-16.059,10.737-5.991,2.49-12.487,3.765-18.952,3.765-6.465,0-12.961-1.275-18.952-3.765-5.995-2.482-11.48-6.157-16.059-10.737-4.579-4.579-8.255-10.064-10.737-16.059-2.49-5.991-3.765-12.487-3.765-18.952,0-6.465,1.275-12.961,3.765-18.952,2.482-5.995,6.157-11.48,10.737-16.059,4.58-4.579,10.064-8.255,16.059-10.737,5.991-2.49,12.487-3.765,18.952-3.765,6.465,0,12.961,1.275,18.952,3.765,5.995,2.482,11.48,6.157,16.059,10.737,4.579,4.579,8.255,10.064,10.737,16.059,2.49,5.991,3.765,12.487,3.765,18.952h-13.01c-.004-4.796-.942-9.559-2.773-13.968-1.825-4.41-4.535-8.459-7.918-11.843-3.384-3.383-7.433-6.093-11.843-7.918-4.409-1.831-9.172-2.769-13.968-2.773-4.796.004-9.559.942-13.968,2.773-4.41,1.825-8.459,4.535-11.843,7.918-3.383,3.384-6.093,7.433-7.918,11.843-1.831,4.409-2.769,9.172-2.773,13.968.004,4.796.942,9.559,2.773,13.968,1.825,4.41,4.535,8.459,7.918,11.843,3.384,3.383,7.433,6.093,11.843,7.918,4.409,1.831,9.172,2.769,13.968,2.773,4.796-.004,9.559-.942,13.968-2.773,4.41-1.825,8.459-4.535,11.843-7.918,3.383-3.384,6.093-7.433,7.918-11.843,1.831-4.409,2.769-9.172,2.773-13.968h13.01Z"/>
  <path class="cls-2" d="M158.161,90c.004,8.857-1.752,17.837-5.188,26.095-3.423,8.267-8.482,15.809-14.776,22.102-6.293,6.294-13.835,11.353-22.102,14.776-8.257,3.435-17.238,5.192-26.095,5.188-8.857.004-17.837-1.752-26.095-5.188-8.267-3.423-15.809-8.482-22.102-14.776-6.294-6.293-11.353-13.835-14.776-22.102-3.435-8.257-5.192-17.238-5.187-26.095-.004-8.857,1.752-17.837,5.187-26.095,3.423-8.267,8.482-15.809,14.776-22.102,6.293-6.294,13.835-11.353,22.102-14.776,8.257-3.435,17.238-5.192,26.095-5.187,8.857-.004,17.837,1.752,26.095,5.187,8.267,3.423,15.809,8.482,22.102,14.776,6.294,6.293,11.353,13.835,14.776,22.102,3.436,8.257,5.192,17.238,5.188,26.095h-13.01c0-7.188-1.419-14.435-4.195-21.111-2.766-6.682-6.86-12.789-11.958-17.886-5.098-5.098-11.204-9.192-17.886-11.958-6.676-2.776-13.923-4.196-21.111-4.195-7.188-.001-14.435,1.419-21.111,4.195-6.682,2.766-12.789,6.86-17.886,11.958-5.098,5.098-9.192,11.204-11.958,17.886-2.776,6.676-4.196,13.923-4.195,21.111,0,7.188,1.419,14.435,4.195,21.111,2.766,6.682,6.86,12.789,11.958,17.886,5.098,5.098,11.204,9.192,17.886,11.958,6.676,2.776,13.923,4.196,21.111,4.195,7.188.001,14.435-1.419,21.111-4.195,6.682-2.766,12.789-6.86,17.886-11.958,5.098-5.098,9.192-11.204,11.958-17.886,2.776-6.676,4.196-13.923,4.195-21.111h13.01Z"/>
  <path class="cls-3" d="M176.809,90c-.003,5.622-.55,11.304-1.657,16.891-1.105,5.589-2.769,11.081-4.953,16.346-4.365,10.539-10.807,20.139-18.816,28.146-8.007,8.009-17.606,14.451-28.146,18.816-5.265,2.184-10.758,3.847-16.346,4.953-5.588,1.107-11.269,1.654-16.892,1.657-5.622-.003-11.304-.55-16.892-1.657-5.589-1.105-11.081-2.769-16.346-4.953-10.539-4.365-20.139-10.807-28.146-18.816-8.009-8.007-14.451-17.606-18.816-28.146-2.184-5.265-3.847-10.758-4.953-16.346-1.107-5.588-1.654-11.269-1.657-16.891.003-5.622.55-11.304,1.657-16.891,1.105-5.589,2.769-11.081,4.953-16.346,4.365-10.539,10.807-20.139,18.816-28.146,8.007-8.009,17.606-14.451,28.146-18.816,5.265-2.184,10.758-3.847,16.346-4.953,5.588-1.107,11.269-1.654,16.892-1.657,5.622.003,11.304.55,16.892,1.657,5.589,1.105,11.081,2.769,16.346,4.953,10.539,4.365,20.139,10.807,28.146,18.816,8.009,8.007,14.452,17.606,18.816,28.146,2.184,5.265,3.847,10.758,4.953,16.346,1.107,5.588,1.655,11.269,1.657,16.891h-13.01c.006-9.58-1.896-19.312-5.617-28.254-3.708-8.954-9.185-17.118-15.998-23.929-6.811-6.813-14.975-12.29-23.929-15.998-8.942-3.721-18.674-5.623-28.254-5.617-9.58-.006-19.312,1.896-28.254,5.617-8.954,3.708-17.118,9.185-23.929,15.998-6.813,6.811-12.29,14.975-15.998,23.929-3.721,8.942-5.623,18.674-5.618,28.254-.006,9.58,1.896,19.312,5.618,28.254,3.708,8.954,9.185,17.118,15.998,23.929,6.811,6.813,14.975,12.29,23.929,15.998,8.942,3.721,18.674,5.623,28.254,5.617,9.58.006,19.312-1.896,28.254-5.617,8.954-3.708,17.118-9.185,23.929-15.998,6.813-6.811,12.29-14.975,15.998-23.929,3.721-8.942,5.623-18.674,5.617-28.254h13.01Z"/>
</svg>